#!OML:ASF I:\Actors\actors\Patient Classification 1\Patient 1\Session 1\Subject1.ASF
:FULLY-SPECIFIED
:DEGREES
480
root 0.746042 17.536 9.30265 0.748182 8.93813 -9.40591
lowerback -0.278141 -5.28427 0.937657
upperback -6.2963 -6.98085 1.25967
thorax -6.33991 -3.47281 1.15297
lowerneck -7.49908 -9.77227 -7.07981
upperneck 40.3078 -15.4335 3.68895
head 16.7348 -7.25483 0.279347
rclavicle -3.598e-014 -3.26007e-014
rhumerus -81.7664 38.3639 -97.0317
rradius 112.308
rwrist 24.8255
rhand -0.579247 -12.8632
rfingers 7.12502
rthumb 25.0354 -41.2425
lclavicle -3.598e-014 -3.26007e-014
lhumerus -119.649 -83.9289 195.125
lradius 84.0614
lwrist 53.1714
lhand -0.414281 -7.65726
lfingers 7.12502
lthumb 25.1935 20.6999
rfemur 2.78383 18.807 29.5518
rtibia 8.30438
rfoot -16.615 -28.2195
rtoes 4.36982
lfemur 6.72713 -31.0124 -10.9894
ltibia -1.82003
lfoot -8.61252 29.0525
ltoes -14.393
481
root 0.729589 17.5377 9.30458 0.718909 9.7053 -9.15486
lowerback -0.203188 -5.43296 0.585267
upperback -6.21704 -7.18856 1.30325
thorax -6.24707 -3.55636 1.40026
lowerneck -7.29075 -9.90183 -7.36864
upperneck 40.4315 -15.5679 3.63303
head 16.7921 -7.36164 0.286237
rclavicle 3.61788e-014 -1.43125e-014
rhumerus -83.0829 37.725 -96.963
rradius 112.414
rwrist 25.8316
rhand -3.20334 -12.7217
rfingers 7.12502
rthumb 22.5188 -41.4285
lclavicle 3.61788e-014 -1.43125e-014
lhumerus -120.033 -84.0967 196.63
lradius 83.0216
lwrist 53.1159
lhand 1.88996 -8.53717
lfingers 7.12502
lthumb 27.3993 19.4907
rfemur 2.85729 18.778 29.418
rtibia 8.40094
rfoot -16.958 -28.8613
rtoes 4.98508
lfemur 6.43614 -30.8726 -11.0088
ltibia -1.84575
lfoot -8.32807 28.2172
ltoes -15.2968
482
root 0.718581 17.5389 9.3052 0.680944 10.471 -8.98161
lowerback -0.13695 -5.61519 0.410098
upperback -6.11178 -7.43575 1.34825
thorax -6.14126 -3.66953 1.55223
lowerneck -7.21353 -10.0067 -7.62543
upperneck 40.57 -15.673 3.58856
head 16.8856 -7.4449 0.288713
rclavicle 6.54002e-014 1.59028e-014
rhumerus -84.1758 37.1429 -96.9573
rradius 112.368
rwrist 26.9849
rhand -5.5356 -11.5021
rfingers 7.12502
rthumb 20.2787 -40.4635
lclavicle 6.54002e-014 1.59028e-014
lhumerus -120.096 -84.2819 197.686
lradius 82.1795
lwrist 53.659
lhand 4.30201 -8.52244
lfingers 7.12502
lthumb 29.704 19.118
rfemur 2.92538 18.6296 29.3251
rtibia 8.46171
rfoot -17.2481 -29.4023
rtoes 5.26839
lfemur 6.11911 -30.8227 -10.9895
ltibia -1.78049
lfoot -8.11901 27.4578
ltoes -15.8971
483
root 0.710782 17.5387 9.30464 0.664975 11.1766 -8.87553
lowerback -0.112639 -5.79975 0.377391
upperback -5.98689 -7.68204 1.38805
thorax -6.00876 -3.7906 1.61559
lowerneck -7.10013 -10.0993 -7.69834
upperneck 40.5926 -15.7143 3.37656
head 16.8548 -7.50141 0.208891
rclavicle 5.50634e-014 -3.18055e-015
rhumerus -85.0084 36.5218 -96.9566
rradius 112.292
rwrist 27.9896
rhand -7.31968 -10.3565
rfingers 7.12502
rthumb 18.5633 -39.4908
lclavicle 5.50634e-014 -3.18055e-015
lhumerus -120.19 -84.454 198.683
lradius 81.5018
lwrist 53.842
lhand 6.64165 -8.12881
lfingers 7.12502
lthumb 31.9345 19.0902
rfemur 2.94628 18.4203 29.2722
rtibia 8.52594
rfoot -17.5482 -29.8279
rtoes 5.68393
lfemur 5.77412 -30.7832 -10.9175
ltibia -1.67185
lfoot -7.83678 26.7783
ltoes -16.5989
484
root 0.701281 17.5373 9.30172 0.629872 11.6642 -8.9568
lowerback -0.0475298 -5.91139 0.538721
upperback -5.88772 -7.82254 1.46261
thorax -5.94974 -3.86699 1.61208
lowerneck -6.9689 -10.1914 -8.06256
upperneck 40.5953 -15.8653 3.57302
head 16.9104 -7.59387 0.329176
rclavicle 2.04748e-014 2.46493e-014
rhumerus -85.6489 35.8528 -96.9761
rradius 112.256
rwrist 28.4852
rhand -8.75775 -12.6506
rfingers 7.12502
rthumb 17.1796 -41.9112
lclavicle 2.04748e-014 2.46493e-014
lhumerus -121.495 -84.51 200.861
lradius 80.8919
lwrist 53.2354
lhand 8.82487 -8.27273
lfingers 7.12502
lthumb 34.0109 18.5086
rfemur 2.86399 18.2785 29.425
rtibia 8.73049
rfoot -17.8893 -30.0866
rtoes 6.56474
lfemur 5.55006 -30.7562 -10.6614
ltibia -1.68258
lfoot -7.48916 26.3373
ltoes -17.6517
485
root 0.695322 17.5292 9.29193 0.80995 12.0462 -9.1077
lowerback -0.079095 -6.00144 0.889271
upperback -5.91263 -7.92761 1.54878
thorax -5.99304 -3.93386 1.51636
lowerneck -6.80439 -10.2643 -8.53989
upperneck 40.5734 -16.0356 3.93772
head 16.9852 -7.69186 0.53796
rclavicle 1.68967e-014 1.59028e-014
rhumerus -86.1996 35.2142 -97.0729
rradius 112.276
rwrist 28.7437
rhand -9.93045 -12.3333
rfingers 7.12502
rthumb 16.0506 -41.6885
lclavicle 1.68967e-014 1.59028e-014
lhumerus -122.872 -84.4313 203.03
lradius 80.3382
lwrist 52.2724
lhand 10.2831 -8.94496
lfingers 7.12502
lthumb 35.3948 17.518
rfemur 2.36053 18.0182 29.4739
rtibia 9.09657
rfoot -18.1485 -30.1108
rtoes 7.08899
lfemur 5.03774 -30.8603 -10.2236
ltibia -1.63819
lfoot -7.28501 26.1503
ltoes -18.2901
486
root 0.700154 17.5123 9.27362 1.32405 12.588 -9.11344
lowerback -0.250322 -6.1596 1.38077
upperback -6.11761 -8.12437 1.54487
thorax -6.18285 -4.05536 1.25705
lowerneck -6.53971 -10.2871 -8.59059
upperneck 40.5492 -16.0304 3.83653
head 16.899 -7.72103 0.522447
rclavicle -1.76918e-014 -2.78299e-014
rhumerus -86.702 34.5423 -97.2127
rradius 112.364
rwrist 29.1219
rhand -11.0382 -12.3367
rfingers 7.12502
rthumb 14.9837 -41.7746
lclavicle -1.76918e-014 -2.78299e-014
lhumerus -122.878 -84.2078 203.7
lradius 79.9161
lwrist 51.7218
lhand 10.8828 -9.51043
lfingers 7.12502
lthumb 35.9631 16.8151
rfemur 1.40877 17.4527 29.1086
rtibia 9.48237
rfoot -18.2593 -29.9751
rtoes 7.11452
lfemur 3.86562 -31.0038 -9.73368
ltibia -1.28599
lfoot -7.20337 25.8879
ltoes -18.419
487
root 0.688728 17.5112 9.27185 1.28686 12.9965 -9.02245
lowerback -0.0145169 -6.27551 1.40214
upperback -6.12804 -8.27642 1.51374
thorax -6.33642 -4.13054 1.25267
lowerneck -6.2973 -10.3242 -8.54859
upperneck 40.6207 -16.0522 3.6681
head 16.854 -7.75379 0.455296
rclavicle -9.34288e-015 -6.36111e-015
rhumerus -86.9993 33.7436 -97.2339
rradius 112.469
rwrist 29.5225
rhand -11.8578 -12.5554
rfingers 7.12502
rthumb 14.194 -42.0505
lclavicle -9.34288e-015 -6.36111e-015
lhumerus -122.616 -83.9139 204.052
lradius 79.6106
lwrist 51.7205
lhand 11.2587 -10.0045
lfingers 7.12502
lthumb 36.3192 16.233
rfemur 1.41035 17.3108 29.0643
rtibia 9.57332
rfoot -18.3848 -30.1728
rtoes 7.59357
lfemur 3.70889 -30.9747 -9.71342
ltibia -1.26302
lfoot -7.06662 25.4758
ltoes -18.6905
488
root 0.677871 17.51 9.27304 1.24623 13.3753 -9.03015
lowerback 0.0821287 -6.38654 1.45391
upperback -6.07831 -8.42062 1.543
thorax -6.34182 -4.20333 1.27137
lowerneck -6.17983 -10.3847 -8.62963
upperneck 40.6545 -16.1504 3.68584
head 16.867 -7.80712 0.464264
rclavicle -1.55052e-014 3.18055e-015
rhumerus -87.041 32.9144 -97.1099
rradius 112.582
rwrist 29.7118
rhand -12.8127 -13.1407
rfingers 7.12502
rthumb 13.2738 -42.698
lclavicle -1.55052e-014 3.18055e-015
lhumerus -121.39 -83.6916 203.462
lradius 79.3046
lwrist 51.8847
lhand 11.9665 -10.3583
lfingers 7.12502
lthumb 36.989 15.709
rfemur 1.40034 17.1574 29.1262
rtibia 9.67232
rfoot -18.4942 -30.3198
rtoes 8.06263
lfemur 3.59075 -30.9337 -9.58151
ltibia -1.30892
lfoot -6.90862 25.0652
ltoes -19.1095
